HIERARCHY
ROOT Hips
{
  OFFSET 196.326 95.9168 97.7182
  CHANNELS 6 Xposition Yposition Zposition Zrotation Xrotation Yrotation
  JOINT LeftUpLeg
  {
    OFFSET 8.64259 1.95398 -2.38835
    CHANNELS 3 Zrotation Xrotation Yrotation
    JOINT LeftLeg
    {
      OFFSET 43.7702 0 0
      CHANNELS 3 Zrotation Xrotation Yrotation
      JOINT LeftFoot
      {
        OFFSET 40.6238 0 0
        CHANNELS 3 Zrotation Xrotation Yrotation
        JOINT LeftToeBase
        {
          OFFSET 12.7242 0 0
          CHANNELS 3 Zrotation Xrotation Yrotation
          End Site
          {
            OFFSET 0 0 0
          }
        }
      }
    }
  }
  JOINT RightUpLeg
  {
    OFFSET -8.2249 1.95398 -2.59336
    CHANNELS 3 Zrotation Xrotation Yrotation
    JOINT RightLeg
    {
      OFFSET 43.5653 0 0
      CHANNELS 3 Zrotation Xrotation Yrotation
      JOINT RightFoot
      {
        OFFSET 40.6238 0 0
        CHANNELS 3 Zrotation Xrotation Yrotation
        JOINT RightToeBase
        {
          OFFSET 12.7242 0 0
          CHANNELS 3 Zrotation Xrotation Yrotation
          End Site
          {
            OFFSET 0 0 0
          }
        }
      }
    }
  }
  JOINT Spine
  {
    OFFSET 0.165834 0.87714 6.61349
    CHANNELS 3 Zrotation Xrotation Yrotation
    JOINT Spine1
    {
      OFFSET 7.38963 1.71661e-005 0
      CHANNELS 3 Zrotation Xrotation Yrotation
      JOINT Spine2
      {
        OFFSET 11.9445 1.14441e-005 0
        CHANNELS 3 Zrotation Xrotation Yrotation
        JOINT Spine3
        {
          OFFSET 14.7254 4.19617e-005 0
          CHANNELS 3 Zrotation Xrotation Yrotation
          JOINT Spine4
          {
            OFFSET 10.9679 0 0
            CHANNELS 3 Zrotation Xrotation Yrotation
            JOINT RightShoulder
            {
              OFFSET 2.46616 -1.6653 3.69651
              CHANNELS 3 Zrotation Xrotation Yrotation
              JOINT RightArm
              {
                OFFSET 13.0012 0 0
                CHANNELS 3 Zrotation Xrotation Yrotation
                JOINT RightForeArm
                {
                  OFFSET 28.7848 1.52588e-005 0
                  CHANNELS 3 Zrotation Xrotation Yrotation
                  JOINT RightHand
                  {
                    OFFSET 26.5688 1.52588e-005 0
                    CHANNELS 3 Zrotation Xrotation Yrotation
                    End Site
                    {
                      OFFSET 0 0 0
                    }
                  }
                }
              }
            }
            JOINT LeftShoulder
            {
              OFFSET 2.38034 -1.29275 -3.75231
              CHANNELS 3 Zrotation Xrotation Yrotation
              JOINT LeftArm
              {
                OFFSET 16.3182 6.10351e-005 0
                CHANNELS 3 Zrotation Xrotation Yrotation
                JOINT LeftForeArm
                {
                  OFFSET 27.0901 0 0
                  CHANNELS 3 Zrotation Xrotation Yrotation
                  JOINT LeftHand
                  {
                    OFFSET 24.5451 1.52588e-005 0
                    CHANNELS 3 Zrotation Xrotation Yrotation
                    End Site
                    {
                      OFFSET 0 0 0
                    }
                  }
                }
              }
            }
            JOINT Neck
            {
              OFFSET 5.0226 -0.0266342 0
              CHANNELS 3 Zrotation Xrotation Yrotation
              JOINT Head
              {
                OFFSET 6.69363 2.86102e-005 0
                CHANNELS 3 Zrotation Xrotation Yrotation
                End Site
                {
                  OFFSET 0 0 0
                }
              }
            }
          }
        }
      }
    }
  }
}
MOTION
Frames:	15
Frame Time:	0.0416667
-55.1463 97.1941 45.8591 -43.0449 -88.7912 -42.62 -171.46 4.49485 91.7314 -5.87079 7.10443 -0.819227 58.9538 4.05225 12.2944 35.2814 6.91332 -30.039 177.83 5.67886 89.8184 -11.5572 8.1526 -0.343637 63.48 -1.5851 -0.823373 30.0989 -0.903514 18.9109 0.166861 6.28283 -90.0717 14.2965 0.295325 -0.1852 2.62555 0.28689 -0.198029 -19.9098 0.337335 -0.0878749 0.102809 0.33733 -0.0878878 82.37 -49.6286 -112.507 22.7437 -17.8269 5.74009 22.3106 3.99157 -87.1353 -15.2133 -0.469644 -2.11083 -101.386 -41.76 58.5495 -28.7446 5.09145 8.56247 -18.4753 -11.2863 -77.9384 9.77695 -0.0482678 -3.97278 11.9485 2.20781 1.15798 -15.3806 1.7839 1.13153 
-55.1578 97.1549 45.795 -43.9164 -88.8537 -43.3885 -171.431 4.56425 91.9052 -5.97095 8.16585 -0.883709 59.1506 4.69543 13.3772 34.4388 6.36704 -31.7165 177.889 5.60538 89.9392 -11.5112 8.08509 -0.346097 63.6663 -1.65917 -0.86871 29.6379 -0.997301 18.6914 0.153076 6.28373 -90.0849 14.3078 0.261548 -0.206904 2.63689 0.252183 -0.218219 -19.8984 0.311635 -0.118738 0.114224 0.311637 -0.118733 82.0931 -49.8607 -112.836 22.627 -17.5307 5.45118 21.2839 4.68822 -87.3082 -13.9206 -0.468334 -1.51771 -101.459 -41.8173 58.4618 -28.6864 5.10424 8.77558 -18.0037 -10.994 -78.3472 11.109 0.0538297 -3.14894 10.4233 1.77959 2.40731 -13.1887 1.17733 0.138549 
-55.1209 97.1604 45.79 -39.3882 -88.8866 -38.812 -171.478 4.67554 91.9041 -6.01134 8.55723 -0.869908 58.6305 4.34744 13.5752 35.6927 7.16647 -31.0678 177.881 5.55103 89.9592 -11.3323 8.20244 -0.316438 63.5878 -1.66826 -0.874422 29.7838 -0.957756 18.578 0.156441 6.27357 -90.0827 14.327 0.269263 -0.203545 2.65609 0.260053 -0.215208 -19.8792 0.317991 -0.113214 0.133409 0.317997 -0.113209 82.2301 -49.8116 -112.65 22.849 -17.4548 5.52121 21.332 4.85755 -87.6803 -13.8129 -0.489512 -1.27765 -101.569 -41.7356 58.2534 -28.6829 4.93081 8.82498 -18.3082 -11.17 -78.1345 10.1058 -0.0331456 -3.84108 10.5037 1.75192 1.38611 -13.1307 1.3094 1.45029 
-55.0847 97.177 45.8139 -47.1982 -88.9345 -46.6894 -171.481 4.47004 91.8302 -5.96696 8.39986 -0.86324 58.7515 4.37431 13.4308 34.8348 6.62273 -30.1729 177.783 5.52107 89.8431 -11.5573 7.94873 -0.299411 63.5437 -1.62842 -0.850105 29.9664 -0.91783 18.6144 0.172745 6.28699 -90.0797 14.3002 0.303066 -0.202211 2.62929 0.293873 -0.215363 -19.9061 0.349826 -0.101778 0.106529 0.34982 -0.101791 82.3033 -49.7808 -112.551 22.7906 -17.4964 5.53419 21.773 4.54261 -87.4913 -14.4653 -0.468074 -1.77169 -101.627 -41.7615 58.1746 -28.6678 5.00813 8.6985 -18.3489 -11.1602 -78.1787 10.6353 0.0017305 -3.56232 10.7144 1.72648 1.53141 -13.2912 1.25975 1.20821 
-55.1088 97.1326 45.8371 -34.2325 -88.7657 -33.6969 -171.402 4.74562 91.8469 -6.0259 8.2672 -0.952731 59.4765 5.06288 13.4609 33.4289 5.72727 -31.3927 177.919 5.73027 89.9366 -11.4459 8.16213 -0.365205 63.6568 -1.69 -0.888348 29.9179 -0.92028 18.4578 0.161013 6.24952 -90.0819 14.3751 0.278629 -0.203596 2.70416 0.269404 -0.215665 -19.8312 0.326942 -0.110445 0.181461 0.326942 -0.110438 82.2362 -49.9569 -112.588 22.4912 -17.5784 5.48391 21.8861 4.16684 -87.1574 -14.8805 -0.470852 -1.94869 -101.62 -41.7228 58.1683 -28.6908 5.03232 8.72819 -18.2988 -11.1228 -78.247 9.96531 -0.0398583 -3.90118 10.6057 1.6912 1.5881 -13.2382 1.21145 1.26324 
-55.0943 97.1438 45.8753 -33.4263 -88.8412 -32.9334 -171.371 4.69256 91.8297 -6.03248 8.29923 -0.998387 59.2227 4.88238 13.5519 34.5618 6.44526 -31.5903 177.791 5.74918 89.8424 -11.6437 8.20161 -0.278106 63.7863 -1.68375 -0.883504 29.7585 -0.974797 18.7832 0.149505 6.25797 -90.0765 14.3582 0.258565 -0.18965 2.68727 0.249964 -0.200852 -19.8481 0.303606 -0.103175 0.164596 0.303601 -0.10318 82.1853 -50.0368 -112.634 22.4745 -17.4364 5.50209 21.1671 3.89724 -87.1773 -14.586 -0.464416 -1.84972 -101.614 -41.7708 58.1999 -28.6114 4.84357 8.60095 -18.3189 -11.0671 -78.2132 10.3671 -0.0826376 -4.2992 10.7424 1.74419 1.62139 -13.3481 1.25313 1.24 
-55.1934 97.1338 45.928 -49.8828 -88.6271 -49.7382 -171.43 4.44645 91.582 -5.9774 7.84627 -1.03147 59.3876 4.98176 13.5322 34.325 6.29601 -31.2104 177.823 5.96313 89.6209 -12.1758 7.74718 -0.486075 63.986 -1.64549 -0.8588 29.9142 -0.933449 18.6763 0.190119 6.27058 -90.0514 14.333 0.351323 -0.152382 2.66208 0.344272 -0.167706 -19.8734 0.380871 -0.0397558 0.139203 0.380879 -0.0397456 82.3756 -49.7609 -112.45 22.6397 -17.2573 5.40428 20.5598 3.64739 -87.1517 -13.5785 -0.445086 -1.53031 -101.693 -41.8635 58.1198 -28.5478 4.91485 8.51267 -18.9422 -11.2217 -78.6053 11.3135 -0.0300901 -3.87413 10.6068 1.72293 1.98633 -13.0517 1.17017 0.937121 
-55.2046 97.1277 45.9924 -49.6894 -88.4431 -49.4543 -171.413 4.5359 91.6659 -5.94104 7.99622 -1.03261 59.0411 4.80136 13.9024 35.7622 7.18954 -32.5074 177.873 5.9747 89.7361 -12.0427 7.67795 -0.470467 63.9902 -1.67456 -0.87564 29.7148 -0.96724 18.4742 0.203776 6.2597 -90.0549 14.3548 0.376663 -0.162904 2.6839 0.369127 -0.179334 -19.8517 0.408203 -0.0421663 0.160962 0.408204 -0.0421748 82.5053 -49.6073 -112.312 22.6938 -17.3135 5.16996 20.2797 3.44725 -87.2088 -14.5258 -0.508545 -1.4507 -101.614 -41.7677 58.1986 -28.3712 5.35904 8.37255 -18.6162 -10.9367 -78.9521 10.9804 -0.0386882 -3.93131 10.6794 1.72763 1.96951 -13.092 1.17849 0.920395 
-55.065 97.1659 46.0692 -44.016 -88.8323 -43.5255 -171.368 4.36823 91.8092 -5.98938 7.98354 -0.961587 59.6453 5.04886 13.1192 33.1413 5.52331 -30.1212 177.81 5.45488 89.8325 -11.5224 7.942 -0.348623 63.7381 -1.67772 -0.879363 30.0131 -0.899546 18.4732 0.180032 6.29259 -90.0888 14.289 0.313022 -0.221888 2.61807 0.30295 -0.235463 -19.9173 0.365227 -0.11756 0.0953146 0.365238 -0.117555 82.8002 -49.3822 -111.95 22.5096 -17.5239 4.922 20.1243 3.62699 -87.4676 -15.2913 -0.507483 -1.79738 -101.729 -41.827 58.0475 -27.9068 5.65837 8.12809 -18.1842 -10.565 -79.6071 11.0028 -0.0164732 -3.73839 10.7523 1.84563 1.83811 -12.9868 1.31585 1.05796 
-55.5905 97.1336 46.1358 -34.764 -87.7656 -35.3463 -171.43 5.16179 91.1714 -5.86225 7.58695 -1.34598 59.1265 4.56335 13.1611 34.3793 6.32822 -30.3566 178.08 7.14244 89.3691 -12.7471 7.91648 -0.864361 64.3198 -1.61007 -0.832825 29.8697 -0.953796 18.8648 0.218041 6.2113 -89.9597 14.4513 0.45172 0.0171326 2.78043 0.452034 -0.00277237 -19.7553 0.425686 0.152106 0.257328 0.42568 0.152099 83.1817 -48.8951 -111.548 22.4887 -17.3369 4.34825 19.5465 2.62996 -89.1667 -15.7968 -0.624429 -1.1365 -101.451 -41.6907 58.4165 -27.0238 5.98676 7.86358 -18.9785 -9.96515 -82.1575 12.3254 0.115868 -2.76297 10.9954 1.84352 1.8246 -13.0364 1.30852 1.11964 
-55.5398 97.104 46.1634 4.46837 -87.765 3.90145 -171.64 5.86218 91.0379 -6.04394 9.21096 -1.36458 58.7741 4.62426 13.8337 35.7938 7.22551 -31.3111 177.94 7.40625 89.2996 -12.7872 9.18081 -0.649925 64.3796 -1.56737 -0.809431 30.0346 -0.913582 18.815 0.0759267 6.18132 -89.9582 14.5121 0.17099 0.0595405 2.84117 0.173443 0.0519603 -19.694 0.145189 0.108178 0.318684 0.145185 0.108177 83.5935 -48.5541 -111.044 21.4328 -16.9197 3.63903 18.2099 1.98147 -92.0898 -15.2796 -0.711846 -0.0921348 -101.184 -41.4414 58.7197 -25.4608 6.1922 7.39044 -17.7007 -8.54971 -85.9969 11.5066 0.1834 -2.11703 11.0815 1.73576 1.84703 -12.8408 1.20403 1.02945 
-55.0867 97.132 46.2469 10.665 -88.4703 11.4185 -171.357 5.23735 92.0567 -6.12079 9.37762 -1.0418 59.1156 4.8351 13.5336 34.8689 6.6416 -30.8951 177.958 5.74035 90.1504 -11.2185 9.1883 -0.246656 63.6269 -1.7302 -0.912062 30.269 -0.828352 18.2203 0.0707441 6.25476 -90.1073 14.3643 0.0873765 -0.227862 2.69338 0.0772627 -0.231492 -19.8417 0.15182 -0.191064 0.170966 0.151819 -0.191069 83.9313 -48.0597 -110.701 19.8639 -15.7649 2.19651 14.8303 1.15056 -96.8843 -11.6524 -0.679139 1.90101 -100.357 -41.2006 59.9092 -23.5271 5.71797 6.25673 -14.5248 -6.64013 -91.5807 12.0205 0.467991 0.0885799 11.1773 1.93065 1.95141 -12.8809 1.37744 0.844262 
-54.9541 97.1459 46.1548 52.8103 -88.7046 53.0998 -171.724 4.62167 91.4875 -6.27644 9.62628 -0.8632 59.1469 4.98612 13.6824 34.9942 6.71856 -31.4568 177.495 5.44022 89.5323 -12.1294 9.43899 -0.162263 63.9936 -1.6932 -0.889762 30.3042 -0.840249 18.6038 -0.0188759 6.3343 -90.0662 14.2052 -0.0698166 -0.123132 2.53428 -0.0751648 -0.119941 -20.0008 -0.0295822 -0.138423 0.0118021 -0.0295796 -0.138422 84.6836 -47.253 -109.819 17.9915 -14.3375 0.256733 13.2755 0.976716 -101.783 -7.93461 -0.382325 2.11058 -99.6553 -40.9888 60.9247 -21.5317 4.45554 4.67219 -10.6037 -4.93199 -97.7621 15.8016 1.08657 2.9799 11.4359 1.97337 2.02153 -12.6802 1.40983 0.634019 
-54.9642 97.1314 46.2813 26.5808 -88.7458 27.1491 -171.545 4.84986 91.7785 -6.21658 9.45403 -0.921775 59.1618 4.86273 13.3918 34.717 6.54695 -29.9665 177.813 5.42367 89.8887 -11.4443 9.33432 -0.291285 63.9877 -1.83468 -0.974647 30.1228 -0.879718 18.5679 0.0534689 6.28364 -90.1033 14.3066 0.0551792 -0.215089 2.63564 0.0456544 -0.217309 -19.8994 0.11727 -0.188559 0.113237 0.117269 -0.188561 85.8315 -46.2638 -108.355 16.3625 -11.4362 -2.6052 10.9296 -0.0765252 -106.939 -5.47329 -0.258979 3.7666 -99.6021 -40.8003 60.927 -18.6851 1.35075 3.63589 -5.16625 -3.8302 -104.823 14.5996 1.25268 4.66696 11.7238 1.95803 1.65376 -12.3609 1.45525 1.11846 
-54.923 97.1312 46.3551 22.4378 -88.6612 22.86 -171.568 4.91467 91.6333 -6.18087 9.6929 -1.01827 58.7817 4.75473 14.004 35.4993 7.04693 -30.6823 177.718 5.6434 89.7245 -11.7252 9.31691 -0.27129 64.0767 -1.80043 -0.95319 30.1103 -0.891511 18.7364 0.0737255 6.26043 -90.1055 14.3531 0.0942267 -0.224877 2.68211 0.084228 -0.228813 -19.853 0.15745 -0.186161 0.159691 0.157447 -0.186171 86.6997 -45.5039 -107.223 14.6868 -5.92473 -5.65755 11.8335 -1.85487 -111.237 -1.24614 0.15975 3.64681 -98.9991 -40.4625 61.7412 -15.5658 -1.93149 1.5763 -1.86421 -3.64484 -110.683 11.4178 1.29831 7.04742 12.1673 1.64112 1.96305 -12.087 1.07681 0.884664 
